<mxfile host="Electron" modified="2023-12-16T19:54:24.236Z" agent="Mozilla/5.0 (Windows NT 10.0; Win64; x64) AppleWebKit/537.36 (KHTML, like Gecko) draw.io/22.1.2 Chrome/114.0.5735.289 Electron/25.9.4 Safari/537.36" etag="1l03UW1TlzU1Pz-q-43I" version="22.1.2" type="device">
  <diagram name="Page-1" id="b520641d-4fe3-3701-9064-5fc419738815">
    <mxGraphModel dx="1098" dy="838" grid="1" gridSize="10" guides="1" tooltips="1" connect="1" arrows="1" fold="1" page="1" pageScale="1" pageWidth="1100" pageHeight="850" background="none" math="0" shadow="0">
      <root>
        <mxCell id="0" />
        <mxCell id="1" parent="0" />
        <mxCell id="21ea969265ad0168-6" value="Playing.py" style="swimlane;html=1;fontStyle=0;childLayout=stackLayout;horizontal=1;startSize=26;fillColor=#e0e0e0;horizontalStack=0;resizeParent=1;resizeLast=0;collapsible=1;marginBottom=0;swimlaneFillColor=#ffffff;align=center;rounded=1;shadow=0;comic=0;labelBackgroundColor=none;strokeWidth=1;fontFamily=Verdana;fontSize=12" parent="1" vertex="1">
          <mxGeometry x="290" y="100" width="160" height="52" as="geometry" />
        </mxCell>
        <mxCell id="21ea969265ad0168-7" value="game" style="text;html=1;strokeColor=none;fillColor=none;spacingLeft=4;spacingRight=4;whiteSpace=wrap;overflow=hidden;rotatable=0;points=[[0,0.5],[1,0.5]];portConstraint=eastwest;" parent="21ea969265ad0168-6" vertex="1">
          <mxGeometry y="26" width="160" height="26" as="geometry" />
        </mxCell>
        <mxCell id="21ea969265ad0168-22" value="Tank.py" style="swimlane;html=1;fontStyle=0;childLayout=stackLayout;horizontal=1;startSize=26;fillColor=#e0e0e0;horizontalStack=0;resizeParent=1;resizeLast=0;collapsible=1;marginBottom=0;swimlaneFillColor=#ffffff;align=center;rounded=1;shadow=0;comic=0;labelBackgroundColor=none;strokeWidth=1;fontFamily=Verdana;fontSize=12" parent="1" vertex="1">
          <mxGeometry x="720" y="370" width="160" height="20" as="geometry" />
        </mxCell>
        <mxCell id="CuXoxN3Ce80IGL0upmJi-16" value="main.py" style="rounded=1;whiteSpace=wrap;html=1;" parent="1" vertex="1">
          <mxGeometry x="130" y="92" width="120" height="60" as="geometry" />
        </mxCell>
        <mxCell id="CuXoxN3Ce80IGL0upmJi-17" value="&lt;font style=&quot;font-size: 12px;&quot;&gt;Global.py&lt;/font&gt;" style="rounded=1;whiteSpace=wrap;html=1;fontSize=12;" parent="1" vertex="1">
          <mxGeometry x="410" y="290" width="120" height="60" as="geometry" />
        </mxCell>
        <mxCell id="CuXoxN3Ce80IGL0upmJi-20" style="edgeStyle=orthogonalEdgeStyle;html=1;labelBackgroundColor=none;startFill=0;startSize=8;endFill=1;endSize=8;fontFamily=Verdana;fontSize=12;exitX=0.5;exitY=1;exitDx=0;exitDy=0;entryX=-0.003;entryY=0.846;entryDx=0;entryDy=0;entryPerimeter=0;" parent="1" source="CuXoxN3Ce80IGL0upmJi-16" target="CuXoxN3Ce80IGL0upmJi-17" edge="1">
          <mxGeometry relative="1" as="geometry">
            <Array as="points">
              <mxPoint x="190" y="340" />
              <mxPoint x="330" y="340" />
              <mxPoint x="410" y="341" />
            </Array>
            <mxPoint x="140" y="160" as="sourcePoint" />
            <mxPoint x="390" y="350" as="targetPoint" />
          </mxGeometry>
        </mxCell>
        <mxCell id="CuXoxN3Ce80IGL0upmJi-21" style="edgeStyle=orthogonalEdgeStyle;html=1;labelBackgroundColor=none;startFill=0;startSize=8;endFill=1;endSize=8;fontFamily=Verdana;fontSize=12;exitX=1;exitY=0.5;exitDx=0;exitDy=0;entryX=0;entryY=0.5;entryDx=0;entryDy=0;" parent="1" source="CuXoxN3Ce80IGL0upmJi-16" target="21ea969265ad0168-7" edge="1">
          <mxGeometry relative="1" as="geometry">
            <Array as="points" />
            <mxPoint x="240" y="210" as="sourcePoint" />
            <mxPoint x="240" y="96" as="targetPoint" />
          </mxGeometry>
        </mxCell>
        <mxCell id="CuXoxN3Ce80IGL0upmJi-27" value="Bullet" style="swimlane;html=1;fontStyle=0;childLayout=stackLayout;horizontal=1;startSize=26;fillColor=#dae8fc;horizontalStack=0;resizeParent=1;resizeLast=0;collapsible=1;marginBottom=0;swimlaneFillColor=#ffffff;align=center;rounded=1;shadow=0;comic=0;labelBackgroundColor=none;strokeWidth=1;fontFamily=Verdana;fontSize=12;strokeColor=#6c8ebf;" parent="1" vertex="1">
          <mxGeometry x="470" y="450" width="160" height="78" as="geometry" />
        </mxCell>
        <mxCell id="CuXoxN3Ce80IGL0upmJi-28" value="Update" style="text;html=1;strokeColor=none;fillColor=none;spacingLeft=4;spacingRight=4;whiteSpace=wrap;overflow=hidden;rotatable=0;points=[[0,0.5],[1,0.5]];portConstraint=eastwest;" parent="CuXoxN3Ce80IGL0upmJi-27" vertex="1">
          <mxGeometry y="26" width="160" height="26" as="geometry" />
        </mxCell>
        <mxCell id="CuXoxN3Ce80IGL0upmJi-29" value="Draw" style="text;html=1;strokeColor=none;fillColor=none;spacingLeft=4;spacingRight=4;whiteSpace=wrap;overflow=hidden;rotatable=0;points=[[0,0.5],[1,0.5]];portConstraint=eastwest;" parent="CuXoxN3Ce80IGL0upmJi-27" vertex="1">
          <mxGeometry y="52" width="160" height="26" as="geometry" />
        </mxCell>
        <mxCell id="CuXoxN3Ce80IGL0upmJi-37" value="Bang.py" style="swimlane;html=1;fontStyle=0;childLayout=stackLayout;horizontal=1;startSize=26;fillColor=#e0e0e0;horizontalStack=0;resizeParent=1;resizeLast=0;collapsible=1;marginBottom=0;swimlaneFillColor=#ffffff;align=center;rounded=1;shadow=0;comic=0;labelBackgroundColor=none;strokeWidth=1;fontFamily=Verdana;fontSize=12" parent="1" vertex="1">
          <mxGeometry x="280" y="508" width="160" height="20" as="geometry" />
        </mxCell>
        <mxCell id="CuXoxN3Ce80IGL0upmJi-38" value="Bullet.py" style="swimlane;html=1;fontStyle=0;childLayout=stackLayout;horizontal=1;startSize=26;fillColor=#e0e0e0;horizontalStack=0;resizeParent=1;resizeLast=0;collapsible=1;marginBottom=0;swimlaneFillColor=#ffffff;align=center;rounded=1;shadow=0;comic=0;labelBackgroundColor=none;strokeWidth=1;fontFamily=Verdana;fontSize=12" parent="1" vertex="1">
          <mxGeometry x="470" y="405" width="160" height="20" as="geometry" />
        </mxCell>
        <mxCell id="CuXoxN3Ce80IGL0upmJi-39" value="Blocks.py" style="swimlane;html=1;fontStyle=0;childLayout=stackLayout;horizontal=1;startSize=26;fillColor=#e0e0e0;horizontalStack=0;resizeParent=1;resizeLast=0;collapsible=1;marginBottom=0;swimlaneFillColor=#ffffff;align=center;rounded=1;shadow=0;comic=0;labelBackgroundColor=none;strokeWidth=1;fontFamily=Verdana;fontSize=12" parent="1" vertex="1">
          <mxGeometry x="800" y="600" width="160" height="20" as="geometry" />
        </mxCell>
        <mxCell id="CuXoxN3Ce80IGL0upmJi-40" value="UI.py" style="swimlane;html=1;fontStyle=0;childLayout=stackLayout;horizontal=1;startSize=26;fillColor=#e0e0e0;horizontalStack=0;resizeParent=1;resizeLast=0;collapsible=1;marginBottom=0;swimlaneFillColor=#ffffff;align=center;rounded=1;shadow=0;comic=0;labelBackgroundColor=none;strokeWidth=1;fontFamily=Verdana;fontSize=12" parent="1" vertex="1">
          <mxGeometry x="530" y="80" width="160" height="20" as="geometry" />
        </mxCell>
        <mxCell id="CuXoxN3Ce80IGL0upmJi-44" value="Draw_Blocks.py" style="swimlane;html=1;fontStyle=0;childLayout=stackLayout;horizontal=1;startSize=26;fillColor=#e0e0e0;horizontalStack=0;resizeParent=1;resizeLast=0;collapsible=1;marginBottom=0;swimlaneFillColor=#ffffff;align=center;rounded=1;shadow=0;comic=0;labelBackgroundColor=none;strokeWidth=1;fontFamily=Verdana;fontSize=12" parent="1" vertex="1">
          <mxGeometry x="790" y="270" width="160" height="52" as="geometry" />
        </mxCell>
        <mxCell id="CuXoxN3Ce80IGL0upmJi-45" value="draw_blocks" style="text;html=1;strokeColor=none;fillColor=none;spacingLeft=4;spacingRight=4;whiteSpace=wrap;overflow=hidden;rotatable=0;points=[[0,0.5],[1,0.5]];portConstraint=eastwest;" parent="CuXoxN3Ce80IGL0upmJi-44" vertex="1">
          <mxGeometry y="26" width="160" height="26" as="geometry" />
        </mxCell>
        <mxCell id="CuXoxN3Ce80IGL0upmJi-46" value="Images_Of_Blocks.py" style="swimlane;html=1;fontStyle=0;childLayout=stackLayout;horizontal=1;startSize=26;fillColor=#e0e0e0;horizontalStack=0;resizeParent=1;resizeLast=0;collapsible=1;marginBottom=0;swimlaneFillColor=#ffffff;align=center;rounded=1;shadow=0;comic=0;labelBackgroundColor=none;strokeWidth=1;fontFamily=Verdana;fontSize=12" parent="1" vertex="1">
          <mxGeometry x="580" y="238" width="160" height="52" as="geometry" />
        </mxCell>
        <mxCell id="CuXoxN3Ce80IGL0upmJi-47" value="images" style="text;html=1;strokeColor=none;fillColor=none;spacingLeft=4;spacingRight=4;whiteSpace=wrap;overflow=hidden;rotatable=0;points=[[0,0.5],[1,0.5]];portConstraint=eastwest;" parent="CuXoxN3Ce80IGL0upmJi-46" vertex="1">
          <mxGeometry y="26" width="160" height="26" as="geometry" />
        </mxCell>
        <mxCell id="CuXoxN3Ce80IGL0upmJi-48" value="Draw_Intro.py" style="swimlane;html=1;fontStyle=0;childLayout=stackLayout;horizontal=1;startSize=26;fillColor=#e0e0e0;horizontalStack=0;resizeParent=1;resizeLast=0;collapsible=1;marginBottom=0;swimlaneFillColor=#ffffff;align=center;rounded=1;shadow=0;comic=0;labelBackgroundColor=none;strokeWidth=1;fontFamily=Verdana;fontSize=12" parent="1" vertex="1">
          <mxGeometry x="790" y="28" width="160" height="52" as="geometry" />
        </mxCell>
        <mxCell id="CuXoxN3Ce80IGL0upmJi-49" value="draw_intro" style="text;html=1;strokeColor=none;fillColor=none;spacingLeft=4;spacingRight=4;whiteSpace=wrap;overflow=hidden;rotatable=0;points=[[0,0.5],[1,0.5]];portConstraint=eastwest;" parent="CuXoxN3Ce80IGL0upmJi-48" vertex="1">
          <mxGeometry y="26" width="160" height="26" as="geometry" />
        </mxCell>
        <mxCell id="CuXoxN3Ce80IGL0upmJi-75" value="UI" style="swimlane;html=1;fontStyle=0;childLayout=stackLayout;horizontal=1;startSize=26;fillColor=#dae8fc;horizontalStack=0;resizeParent=1;resizeLast=0;collapsible=1;marginBottom=0;swimlaneFillColor=#ffffff;align=center;rounded=1;shadow=0;comic=0;labelBackgroundColor=none;strokeWidth=1;fontFamily=Verdana;fontSize=12;strokeColor=#6c8ebf;" parent="1" vertex="1">
          <mxGeometry x="530" y="120" width="160" height="55" as="geometry" />
        </mxCell>
        <mxCell id="CuXoxN3Ce80IGL0upmJi-76" value="Draw" style="text;html=1;strokeColor=none;fillColor=none;spacingLeft=4;spacingRight=4;whiteSpace=wrap;overflow=hidden;rotatable=0;points=[[0,0.5],[1,0.5]];portConstraint=eastwest;" parent="CuXoxN3Ce80IGL0upmJi-75" vertex="1">
          <mxGeometry y="26" width="160" height="26" as="geometry" />
        </mxCell>
        <mxCell id="CuXoxN3Ce80IGL0upmJi-90" value="Bang" style="swimlane;html=1;fontStyle=0;childLayout=stackLayout;horizontal=1;startSize=26;fillColor=#dae8fc;horizontalStack=0;resizeParent=1;resizeLast=0;collapsible=1;marginBottom=0;swimlaneFillColor=#ffffff;align=center;rounded=1;shadow=0;comic=0;labelBackgroundColor=none;strokeWidth=1;fontFamily=Verdana;fontSize=12;strokeColor=#6c8ebf;" parent="1" vertex="1">
          <mxGeometry x="90" y="470" width="160" height="78" as="geometry" />
        </mxCell>
        <mxCell id="CuXoxN3Ce80IGL0upmJi-91" value="Update" style="text;html=1;strokeColor=none;fillColor=none;spacingLeft=4;spacingRight=4;whiteSpace=wrap;overflow=hidden;rotatable=0;points=[[0,0.5],[1,0.5]];portConstraint=eastwest;" parent="CuXoxN3Ce80IGL0upmJi-90" vertex="1">
          <mxGeometry y="26" width="160" height="26" as="geometry" />
        </mxCell>
        <mxCell id="CuXoxN3Ce80IGL0upmJi-92" value="Draw" style="text;html=1;strokeColor=none;fillColor=none;spacingLeft=4;spacingRight=4;whiteSpace=wrap;overflow=hidden;rotatable=0;points=[[0,0.5],[1,0.5]];portConstraint=eastwest;" parent="CuXoxN3Ce80IGL0upmJi-90" vertex="1">
          <mxGeometry y="52" width="160" height="26" as="geometry" />
        </mxCell>
        <mxCell id="CuXoxN3Ce80IGL0upmJi-105" value="Tank" style="swimlane;html=1;fontStyle=0;childLayout=stackLayout;horizontal=1;startSize=26;fillColor=#dae8fc;horizontalStack=0;resizeParent=1;resizeLast=0;collapsible=1;marginBottom=0;swimlaneFillColor=#ffffff;align=center;rounded=1;shadow=0;comic=0;labelBackgroundColor=none;strokeWidth=1;fontFamily=Verdana;fontSize=12;strokeColor=#6c8ebf;" parent="1" vertex="1">
          <mxGeometry x="670" y="440" width="160" height="105" as="geometry" />
        </mxCell>
        <mxCell id="CuXoxN3Ce80IGL0upmJi-106" value="Update" style="text;html=1;strokeColor=none;fillColor=none;spacingLeft=4;spacingRight=4;whiteSpace=wrap;overflow=hidden;rotatable=0;points=[[0,0.5],[1,0.5]];portConstraint=eastwest;" parent="CuXoxN3Ce80IGL0upmJi-105" vertex="1">
          <mxGeometry y="26" width="160" height="26" as="geometry" />
        </mxCell>
        <mxCell id="CuXoxN3Ce80IGL0upmJi-107" value="Draw" style="text;html=1;strokeColor=none;fillColor=none;spacingLeft=4;spacingRight=4;whiteSpace=wrap;overflow=hidden;rotatable=0;points=[[0,0.5],[1,0.5]];portConstraint=eastwest;" parent="CuXoxN3Ce80IGL0upmJi-105" vertex="1">
          <mxGeometry y="52" width="160" height="26" as="geometry" />
        </mxCell>
        <mxCell id="CuXoxN3Ce80IGL0upmJi-108" value="Damage" style="text;html=1;strokeColor=none;fillColor=none;spacingLeft=4;spacingRight=4;whiteSpace=wrap;overflow=hidden;rotatable=0;points=[[0,0.5],[1,0.5]];portConstraint=eastwest;" parent="CuXoxN3Ce80IGL0upmJi-105" vertex="1">
          <mxGeometry y="78" width="160" height="26" as="geometry" />
        </mxCell>
        <mxCell id="CuXoxN3Ce80IGL0upmJi-110" value="BlockBrick" style="swimlane;html=1;fontStyle=0;childLayout=stackLayout;horizontal=1;startSize=26;fillColor=#dae8fc;horizontalStack=0;resizeParent=1;resizeLast=0;collapsible=1;marginBottom=0;swimlaneFillColor=#ffffff;align=center;rounded=1;shadow=0;comic=0;labelBackgroundColor=none;strokeWidth=1;fontFamily=Verdana;fontSize=12;strokeColor=#6c8ebf;" parent="1" vertex="1">
          <mxGeometry x="50" y="680" width="160" height="80" as="geometry" />
        </mxCell>
        <mxCell id="CuXoxN3Ce80IGL0upmJi-111" value="Update" style="text;html=1;strokeColor=none;fillColor=none;spacingLeft=4;spacingRight=4;whiteSpace=wrap;overflow=hidden;rotatable=0;points=[[0,0.5],[1,0.5]];portConstraint=eastwest;" parent="CuXoxN3Ce80IGL0upmJi-110" vertex="1">
          <mxGeometry y="26" width="160" height="26" as="geometry" />
        </mxCell>
        <mxCell id="CuXoxN3Ce80IGL0upmJi-112" value="Draw" style="text;html=1;strokeColor=none;fillColor=none;spacingLeft=4;spacingRight=4;whiteSpace=wrap;overflow=hidden;rotatable=0;points=[[0,0.5],[1,0.5]];portConstraint=eastwest;" parent="CuXoxN3Ce80IGL0upmJi-110" vertex="1">
          <mxGeometry y="52" width="160" height="26" as="geometry" />
        </mxCell>
        <mxCell id="CuXoxN3Ce80IGL0upmJi-121" value="BlockArmor" style="swimlane;html=1;fontStyle=0;childLayout=stackLayout;horizontal=1;startSize=26;fillColor=#dae8fc;horizontalStack=0;resizeParent=1;resizeLast=0;collapsible=1;marginBottom=0;swimlaneFillColor=#ffffff;align=center;rounded=1;shadow=0;comic=0;labelBackgroundColor=none;strokeWidth=1;fontFamily=Verdana;fontSize=12;strokeColor=#6c8ebf;" parent="1" vertex="1">
          <mxGeometry x="450" y="680" width="160" height="80" as="geometry" />
        </mxCell>
        <mxCell id="CuXoxN3Ce80IGL0upmJi-122" value="Update" style="text;html=1;strokeColor=none;fillColor=none;spacingLeft=4;spacingRight=4;whiteSpace=wrap;overflow=hidden;rotatable=0;points=[[0,0.5],[1,0.5]];portConstraint=eastwest;" parent="CuXoxN3Ce80IGL0upmJi-121" vertex="1">
          <mxGeometry y="26" width="160" height="26" as="geometry" />
        </mxCell>
        <mxCell id="CuXoxN3Ce80IGL0upmJi-123" value="Draw" style="text;html=1;strokeColor=none;fillColor=none;spacingLeft=4;spacingRight=4;whiteSpace=wrap;overflow=hidden;rotatable=0;points=[[0,0.5],[1,0.5]];portConstraint=eastwest;" parent="CuXoxN3Ce80IGL0upmJi-121" vertex="1">
          <mxGeometry y="52" width="160" height="26" as="geometry" />
        </mxCell>
        <mxCell id="CuXoxN3Ce80IGL0upmJi-124" value="BlockWater" style="swimlane;html=1;fontStyle=0;childLayout=stackLayout;horizontal=1;startSize=26;fillColor=#dae8fc;horizontalStack=0;resizeParent=1;resizeLast=0;collapsible=1;marginBottom=0;swimlaneFillColor=#ffffff;align=center;rounded=1;shadow=0;comic=0;labelBackgroundColor=none;strokeWidth=1;fontFamily=Verdana;fontSize=12;strokeColor=#6c8ebf;" parent="1" vertex="1">
          <mxGeometry x="260" y="680" width="160" height="80" as="geometry" />
        </mxCell>
        <mxCell id="CuXoxN3Ce80IGL0upmJi-125" value="Update" style="text;html=1;strokeColor=none;fillColor=none;spacingLeft=4;spacingRight=4;whiteSpace=wrap;overflow=hidden;rotatable=0;points=[[0,0.5],[1,0.5]];portConstraint=eastwest;" parent="CuXoxN3Ce80IGL0upmJi-124" vertex="1">
          <mxGeometry y="26" width="160" height="26" as="geometry" />
        </mxCell>
        <mxCell id="CuXoxN3Ce80IGL0upmJi-126" value="Draw" style="text;html=1;strokeColor=none;fillColor=none;spacingLeft=4;spacingRight=4;whiteSpace=wrap;overflow=hidden;rotatable=0;points=[[0,0.5],[1,0.5]];portConstraint=eastwest;" parent="CuXoxN3Ce80IGL0upmJi-124" vertex="1">
          <mxGeometry y="52" width="160" height="26" as="geometry" />
        </mxCell>
        <mxCell id="CuXoxN3Ce80IGL0upmJi-127" value="BlockBushes" style="swimlane;html=1;fontStyle=0;childLayout=stackLayout;horizontal=1;startSize=26;fillColor=#dae8fc;horizontalStack=0;resizeParent=1;resizeLast=0;collapsible=1;marginBottom=0;swimlaneFillColor=#ffffff;align=center;rounded=1;shadow=0;comic=0;labelBackgroundColor=none;strokeWidth=1;fontFamily=Verdana;fontSize=12;strokeColor=#6c8ebf;" parent="1" vertex="1">
          <mxGeometry x="660" y="680" width="160" height="80" as="geometry" />
        </mxCell>
        <mxCell id="CuXoxN3Ce80IGL0upmJi-128" value="Update" style="text;html=1;strokeColor=none;fillColor=none;spacingLeft=4;spacingRight=4;whiteSpace=wrap;overflow=hidden;rotatable=0;points=[[0,0.5],[1,0.5]];portConstraint=eastwest;" parent="CuXoxN3Ce80IGL0upmJi-127" vertex="1">
          <mxGeometry y="26" width="160" height="26" as="geometry" />
        </mxCell>
        <mxCell id="CuXoxN3Ce80IGL0upmJi-129" value="Draw" style="text;html=1;strokeColor=none;fillColor=none;spacingLeft=4;spacingRight=4;whiteSpace=wrap;overflow=hidden;rotatable=0;points=[[0,0.5],[1,0.5]];portConstraint=eastwest;" parent="CuXoxN3Ce80IGL0upmJi-127" vertex="1">
          <mxGeometry y="52" width="160" height="26" as="geometry" />
        </mxCell>
        <mxCell id="CuXoxN3Ce80IGL0upmJi-136" style="edgeStyle=orthogonalEdgeStyle;html=1;labelBackgroundColor=none;startFill=0;startSize=8;endFill=1;endSize=8;fontFamily=Verdana;fontSize=12;exitX=0.24;exitY=1;exitDx=0;exitDy=0;entryX=0;entryY=0.5;entryDx=0;entryDy=0;exitPerimeter=0;" parent="1" source="21ea969265ad0168-7" target="CuXoxN3Ce80IGL0upmJi-17" edge="1">
          <mxGeometry relative="1" as="geometry">
            <Array as="points">
              <mxPoint x="328" y="221" />
              <mxPoint x="328" y="320" />
            </Array>
            <mxPoint x="220" y="220" as="sourcePoint" />
            <mxPoint x="310" y="233" as="targetPoint" />
          </mxGeometry>
        </mxCell>
        <mxCell id="CuXoxN3Ce80IGL0upmJi-137" style="edgeStyle=orthogonalEdgeStyle;html=1;labelBackgroundColor=none;startFill=0;startSize=8;endFill=1;endSize=8;fontFamily=Verdana;fontSize=12;exitX=0.393;exitY=1.036;exitDx=0;exitDy=0;entryX=0;entryY=0.5;entryDx=0;entryDy=0;exitPerimeter=0;" parent="1" source="21ea969265ad0168-7" target="CuXoxN3Ce80IGL0upmJi-40" edge="1">
          <mxGeometry relative="1" as="geometry">
            <Array as="points">
              <mxPoint x="353" y="180" />
              <mxPoint x="490" y="180" />
              <mxPoint x="490" y="90" />
            </Array>
            <mxPoint x="450" y="139" as="sourcePoint" />
            <mxPoint x="540" y="152" as="targetPoint" />
          </mxGeometry>
        </mxCell>
        <mxCell id="CuXoxN3Ce80IGL0upmJi-139" style="edgeStyle=orthogonalEdgeStyle;html=1;labelBackgroundColor=none;startFill=0;startSize=8;endFill=1;endSize=8;fontFamily=Verdana;fontSize=12;entryX=0;entryY=0.5;entryDx=0;entryDy=0;exitX=1;exitY=0.5;exitDx=0;exitDy=0;" parent="1" source="21ea969265ad0168-7" target="CuXoxN3Ce80IGL0upmJi-49" edge="1">
          <mxGeometry relative="1" as="geometry">
            <Array as="points">
              <mxPoint x="450" y="140" />
              <mxPoint x="470" y="140" />
              <mxPoint x="470" y="67" />
            </Array>
            <mxPoint x="440" y="152" as="sourcePoint" />
            <mxPoint x="500" y="233" as="targetPoint" />
          </mxGeometry>
        </mxCell>
        <mxCell id="CuXoxN3Ce80IGL0upmJi-140" style="edgeStyle=orthogonalEdgeStyle;html=1;labelBackgroundColor=none;startFill=0;startSize=8;endFill=1;endSize=8;fontFamily=Verdana;fontSize=12;exitX=0.13;exitY=1.032;exitDx=0;exitDy=0;entryX=0.5;entryY=0;entryDx=0;entryDy=0;exitPerimeter=0;" parent="1" source="CuXoxN3Ce80IGL0upmJi-49" target="CuXoxN3Ce80IGL0upmJi-17" edge="1">
          <mxGeometry relative="1" as="geometry">
            <Array as="points">
              <mxPoint x="811" y="110" />
              <mxPoint x="730" y="110" />
              <mxPoint x="730" y="210" />
              <mxPoint x="470" y="210" />
            </Array>
            <mxPoint x="560" y="200" as="sourcePoint" />
            <mxPoint x="650" y="213" as="targetPoint" />
          </mxGeometry>
        </mxCell>
        <mxCell id="CuXoxN3Ce80IGL0upmJi-141" style="edgeStyle=orthogonalEdgeStyle;html=1;labelBackgroundColor=none;startFill=0;startSize=8;endFill=1;endSize=8;fontFamily=Verdana;fontSize=12;exitX=0.234;exitY=1.128;exitDx=0;exitDy=0;exitPerimeter=0;entryX=0.111;entryY=0.006;entryDx=0;entryDy=0;entryPerimeter=0;" parent="1" source="CuXoxN3Ce80IGL0upmJi-76" target="CuXoxN3Ce80IGL0upmJi-17" edge="1">
          <mxGeometry relative="1" as="geometry">
            <Array as="points">
              <mxPoint x="567" y="190" />
              <mxPoint x="423" y="190" />
              <mxPoint x="423" y="290" />
            </Array>
            <mxPoint x="800" y="159" as="sourcePoint" />
            <mxPoint x="420" y="290" as="targetPoint" />
          </mxGeometry>
        </mxCell>
        <mxCell id="CuXoxN3Ce80IGL0upmJi-138" style="edgeStyle=orthogonalEdgeStyle;html=1;labelBackgroundColor=none;startFill=0;startSize=8;endFill=1;endSize=8;fontFamily=Verdana;fontSize=12;entryX=1;entryY=0.5;entryDx=0;entryDy=0;exitX=1;exitY=0.5;exitDx=0;exitDy=0;" parent="1" source="CuXoxN3Ce80IGL0upmJi-40" target="CuXoxN3Ce80IGL0upmJi-76" edge="1">
          <mxGeometry relative="1" as="geometry">
            <Array as="points">
              <mxPoint x="710" y="90" />
              <mxPoint x="710" y="159" />
            </Array>
            <mxPoint x="710" y="90" as="sourcePoint" />
            <mxPoint x="799.5" y="106" as="targetPoint" />
          </mxGeometry>
        </mxCell>
        <mxCell id="CuXoxN3Ce80IGL0upmJi-142" style="edgeStyle=orthogonalEdgeStyle;html=1;labelBackgroundColor=none;startFill=0;startSize=8;endFill=1;endSize=8;fontFamily=Verdana;fontSize=12;exitX=0.313;exitY=0.927;exitDx=0;exitDy=0;exitPerimeter=0;entryX=1;entryY=0.5;entryDx=0;entryDy=0;" parent="1" source="CuXoxN3Ce80IGL0upmJi-49" target="CuXoxN3Ce80IGL0upmJi-47" edge="1">
          <mxGeometry relative="1" as="geometry">
            <Array as="points">
              <mxPoint x="840" y="160" />
              <mxPoint x="770" y="160" />
              <mxPoint x="770" y="277" />
            </Array>
            <mxPoint x="840" y="90" as="sourcePoint" />
            <mxPoint x="760" y="370" as="targetPoint" />
          </mxGeometry>
        </mxCell>
        <mxCell id="CuXoxN3Ce80IGL0upmJi-143" style="edgeStyle=orthogonalEdgeStyle;html=1;labelBackgroundColor=none;startFill=0;startSize=8;endFill=1;endSize=8;fontFamily=Verdana;fontSize=12;entryX=1;entryY=0.5;entryDx=0;entryDy=0;exitX=0.819;exitY=0.997;exitDx=0;exitDy=0;exitPerimeter=0;" parent="1" source="CuXoxN3Ce80IGL0upmJi-49" target="CuXoxN3Ce80IGL0upmJi-45" edge="1">
          <mxGeometry relative="1" as="geometry">
            <Array as="points">
              <mxPoint x="921" y="160" />
              <mxPoint x="970" y="160" />
              <mxPoint x="970" y="309" />
            </Array>
            <mxPoint x="921.2" y="80" as="sourcePoint" />
            <mxPoint x="960" y="350" as="targetPoint" />
          </mxGeometry>
        </mxCell>
        <mxCell id="CuXoxN3Ce80IGL0upmJi-144" style="edgeStyle=orthogonalEdgeStyle;html=1;labelBackgroundColor=none;startFill=0;startSize=8;endFill=1;endSize=8;fontFamily=Verdana;fontSize=12;exitX=0;exitY=0.5;exitDx=0;exitDy=0;entryX=1;entryY=0.25;entryDx=0;entryDy=0;" parent="1" source="CuXoxN3Ce80IGL0upmJi-47" target="CuXoxN3Ce80IGL0upmJi-17" edge="1">
          <mxGeometry relative="1" as="geometry">
            <Array as="points">
              <mxPoint x="550" y="277" />
              <mxPoint x="550" y="305" />
            </Array>
            <mxPoint x="550" y="270" as="sourcePoint" />
            <mxPoint x="632" y="438" as="targetPoint" />
          </mxGeometry>
        </mxCell>
        <mxCell id="CuXoxN3Ce80IGL0upmJi-145" style="edgeStyle=orthogonalEdgeStyle;html=1;labelBackgroundColor=none;startFill=0;startSize=8;endFill=1;endSize=8;fontFamily=Verdana;fontSize=12;entryX=1.004;entryY=0.64;entryDx=0;entryDy=0;entryPerimeter=0;exitX=0;exitY=0.5;exitDx=0;exitDy=0;" parent="1" source="CuXoxN3Ce80IGL0upmJi-45" target="CuXoxN3Ce80IGL0upmJi-17" edge="1">
          <mxGeometry relative="1" as="geometry">
            <Array as="points">
              <mxPoint x="680" y="309" />
              <mxPoint x="680" y="328" />
            </Array>
            <mxPoint x="770" y="320" as="sourcePoint" />
            <mxPoint x="551.2" y="328.8999999999999" as="targetPoint" />
          </mxGeometry>
        </mxCell>
        <mxCell id="CuXoxN3Ce80IGL0upmJi-146" style="edgeStyle=orthogonalEdgeStyle;html=1;labelBackgroundColor=none;startFill=0;startSize=8;endFill=1;endSize=8;fontFamily=Verdana;fontSize=12;exitX=0.812;exitY=1.006;exitDx=0;exitDy=0;exitPerimeter=0;entryX=0.5;entryY=0;entryDx=0;entryDy=0;" parent="1" source="CuXoxN3Ce80IGL0upmJi-45" target="CuXoxN3Ce80IGL0upmJi-39" edge="1">
          <mxGeometry relative="1" as="geometry">
            <Array as="points">
              <mxPoint x="920" y="530" />
              <mxPoint x="880" y="530" />
            </Array>
            <mxPoint x="920" y="322" as="sourcePoint" />
            <mxPoint x="860" y="570" as="targetPoint" />
          </mxGeometry>
        </mxCell>
        <mxCell id="CuXoxN3Ce80IGL0upmJi-147" style="edgeStyle=orthogonalEdgeStyle;html=1;labelBackgroundColor=none;startFill=0;startSize=8;endFill=1;endSize=8;fontFamily=Verdana;fontSize=12;exitX=0.065;exitY=1.003;exitDx=0;exitDy=0;exitPerimeter=0;entryX=0.5;entryY=0;entryDx=0;entryDy=0;" parent="1" source="CuXoxN3Ce80IGL0upmJi-39" target="CuXoxN3Ce80IGL0upmJi-110" edge="1">
          <mxGeometry relative="1" as="geometry">
            <Array as="points">
              <mxPoint x="810" y="630" />
              <mxPoint x="130" y="630" />
            </Array>
            <mxPoint x="940" y="620" as="sourcePoint" />
            <mxPoint x="80" y="680" as="targetPoint" />
          </mxGeometry>
        </mxCell>
        <mxCell id="CuXoxN3Ce80IGL0upmJi-148" style="edgeStyle=orthogonalEdgeStyle;html=1;labelBackgroundColor=none;startFill=0;startSize=8;endFill=1;endSize=8;fontFamily=Verdana;fontSize=12;exitX=0.25;exitY=1;exitDx=0;exitDy=0;entryX=0.5;entryY=0;entryDx=0;entryDy=0;" parent="1" source="CuXoxN3Ce80IGL0upmJi-39" target="CuXoxN3Ce80IGL0upmJi-124" edge="1">
          <mxGeometry relative="1" as="geometry">
            <Array as="points">
              <mxPoint x="840" y="640" />
              <mxPoint x="340" y="640" />
            </Array>
            <mxPoint x="1020" y="619" as="sourcePoint" />
            <mxPoint x="320" y="660" as="targetPoint" />
          </mxGeometry>
        </mxCell>
        <mxCell id="CuXoxN3Ce80IGL0upmJi-149" style="edgeStyle=orthogonalEdgeStyle;html=1;labelBackgroundColor=none;startFill=0;startSize=8;endFill=1;endSize=8;fontFamily=Verdana;fontSize=12;exitX=0.5;exitY=1;exitDx=0;exitDy=0;entryX=0.5;entryY=0;entryDx=0;entryDy=0;" parent="1" source="CuXoxN3Ce80IGL0upmJi-39" target="CuXoxN3Ce80IGL0upmJi-121" edge="1">
          <mxGeometry relative="1" as="geometry">
            <Array as="points">
              <mxPoint x="880" y="650" />
              <mxPoint x="530" y="650" />
            </Array>
            <mxPoint x="1030" y="620" as="sourcePoint" />
            <mxPoint x="510" y="670" as="targetPoint" />
          </mxGeometry>
        </mxCell>
        <mxCell id="CuXoxN3Ce80IGL0upmJi-150" style="edgeStyle=orthogonalEdgeStyle;html=1;labelBackgroundColor=none;startFill=0;startSize=8;endFill=1;endSize=8;fontFamily=Verdana;fontSize=12;exitX=0.75;exitY=1;exitDx=0;exitDy=0;entryX=0.5;entryY=0;entryDx=0;entryDy=0;" parent="1" source="CuXoxN3Ce80IGL0upmJi-39" target="CuXoxN3Ce80IGL0upmJi-127" edge="1">
          <mxGeometry relative="1" as="geometry">
            <Array as="points">
              <mxPoint x="920" y="660" />
              <mxPoint x="740" y="660" />
            </Array>
            <mxPoint x="930" y="630" as="sourcePoint" />
            <mxPoint x="710" y="670" as="targetPoint" />
          </mxGeometry>
        </mxCell>
        <mxCell id="CuXoxN3Ce80IGL0upmJi-151" style="edgeStyle=orthogonalEdgeStyle;html=1;labelBackgroundColor=none;startFill=0;startSize=8;endFill=1;endSize=8;fontFamily=Verdana;fontSize=12;exitX=1.01;exitY=0.171;exitDx=0;exitDy=0;exitPerimeter=0;entryX=0.085;entryY=1.002;entryDx=0;entryDy=0;entryPerimeter=0;" parent="1" source="CuXoxN3Ce80IGL0upmJi-127" target="CuXoxN3Ce80IGL0upmJi-17" edge="1">
          <mxGeometry relative="1" as="geometry">
            <Array as="points">
              <mxPoint x="920" y="694" />
              <mxPoint x="920" y="840" />
              <mxPoint x="20" y="840" />
              <mxPoint x="20" y="370" />
              <mxPoint x="420" y="370" />
              <mxPoint x="420" y="350" />
            </Array>
            <mxPoint x="920" y="770" as="sourcePoint" />
            <mxPoint x="450" y="360" as="targetPoint" />
          </mxGeometry>
        </mxCell>
        <mxCell id="CuXoxN3Ce80IGL0upmJi-152" style="edgeStyle=orthogonalEdgeStyle;html=1;labelBackgroundColor=none;startFill=0;startSize=8;endFill=1;endSize=8;fontFamily=Verdana;fontSize=12;exitX=1;exitY=0.175;exitDx=0;exitDy=0;exitPerimeter=0;entryX=0.084;entryY=0.998;entryDx=0;entryDy=0;entryPerimeter=0;" parent="1" source="CuXoxN3Ce80IGL0upmJi-121" target="CuXoxN3Ce80IGL0upmJi-17" edge="1">
          <mxGeometry relative="1" as="geometry">
            <Array as="points">
              <mxPoint x="640" y="694" />
              <mxPoint x="640" y="840" />
              <mxPoint x="20" y="840" />
              <mxPoint x="20" y="370" />
              <mxPoint x="420" y="370" />
              <mxPoint x="420" y="350" />
            </Array>
            <mxPoint x="612" y="694" as="sourcePoint" />
            <mxPoint x="240" y="350" as="targetPoint" />
          </mxGeometry>
        </mxCell>
        <mxCell id="CuXoxN3Ce80IGL0upmJi-153" style="edgeStyle=orthogonalEdgeStyle;html=1;labelBackgroundColor=none;startFill=0;startSize=8;endFill=1;endSize=8;fontFamily=Verdana;fontSize=12;exitX=0.996;exitY=0.166;exitDx=0;exitDy=0;exitPerimeter=0;entryX=0.087;entryY=0.996;entryDx=0;entryDy=0;entryPerimeter=0;" parent="1" source="CuXoxN3Ce80IGL0upmJi-124" target="CuXoxN3Ce80IGL0upmJi-17" edge="1">
          <mxGeometry relative="1" as="geometry">
            <Array as="points">
              <mxPoint x="440" y="693" />
              <mxPoint x="440" y="840" />
              <mxPoint x="20" y="840" />
              <mxPoint x="20" y="370" />
              <mxPoint x="420" y="370" />
              <mxPoint x="420" y="350" />
            </Array>
            <mxPoint x="422" y="694" as="sourcePoint" />
            <mxPoint x="450" y="350" as="targetPoint" />
          </mxGeometry>
        </mxCell>
        <mxCell id="CuXoxN3Ce80IGL0upmJi-154" style="edgeStyle=orthogonalEdgeStyle;html=1;labelBackgroundColor=none;startFill=0;startSize=8;endFill=1;endSize=8;fontFamily=Verdana;fontSize=12;entryX=0.086;entryY=1;entryDx=0;entryDy=0;entryPerimeter=0;exitX=1.001;exitY=0.169;exitDx=0;exitDy=0;exitPerimeter=0;" parent="1" source="CuXoxN3Ce80IGL0upmJi-110" target="CuXoxN3Ce80IGL0upmJi-17" edge="1">
          <mxGeometry relative="1" as="geometry">
            <Array as="points">
              <mxPoint x="230" y="693" />
              <mxPoint x="230" y="840" />
              <mxPoint x="20" y="840" />
              <mxPoint x="20" y="370" />
              <mxPoint x="420" y="370" />
              <mxPoint x="420" y="350" />
            </Array>
            <mxPoint x="230" y="674.6762589928057" as="sourcePoint" />
            <mxPoint x="240" y="350" as="targetPoint" />
          </mxGeometry>
        </mxCell>
        <mxCell id="CuXoxN3Ce80IGL0upmJi-156" style="edgeStyle=orthogonalEdgeStyle;html=1;labelBackgroundColor=none;startFill=0;startSize=8;endFill=1;endSize=8;fontFamily=Verdana;fontSize=12;entryX=0.624;entryY=-0.008;entryDx=0;entryDy=0;entryPerimeter=0;exitX=0.568;exitY=1.006;exitDx=0;exitDy=0;exitPerimeter=0;" parent="1" source="21ea969265ad0168-22" target="CuXoxN3Ce80IGL0upmJi-105" edge="1">
          <mxGeometry relative="1" as="geometry">
            <Array as="points">
              <mxPoint x="811" y="408" />
              <mxPoint x="770" y="408" />
            </Array>
            <mxPoint x="820" y="400" as="sourcePoint" />
            <mxPoint x="770" y="436" as="targetPoint" />
          </mxGeometry>
        </mxCell>
        <mxCell id="CuXoxN3Ce80IGL0upmJi-157" style="edgeStyle=orthogonalEdgeStyle;html=1;labelBackgroundColor=none;startFill=0;startSize=8;endFill=1;endSize=8;fontFamily=Verdana;fontSize=12;exitX=0;exitY=0.5;exitDx=0;exitDy=0;entryX=0.5;entryY=0;entryDx=0;entryDy=0;" parent="1" source="CuXoxN3Ce80IGL0upmJi-106" target="CuXoxN3Ce80IGL0upmJi-38" edge="1">
          <mxGeometry relative="1" as="geometry">
            <Array as="points">
              <mxPoint x="650" y="479" />
              <mxPoint x="650" y="380" />
              <mxPoint x="550" y="380" />
            </Array>
            <mxPoint x="650" y="479" as="sourcePoint" />
            <mxPoint x="610" y="400" as="targetPoint" />
          </mxGeometry>
        </mxCell>
        <mxCell id="CuXoxN3Ce80IGL0upmJi-158" style="edgeStyle=orthogonalEdgeStyle;html=1;labelBackgroundColor=none;startFill=0;startSize=8;endFill=1;endSize=8;fontFamily=Verdana;fontSize=12;entryX=0.5;entryY=0;entryDx=0;entryDy=0;exitX=0.495;exitY=0.998;exitDx=0;exitDy=0;exitPerimeter=0;" parent="1" source="CuXoxN3Ce80IGL0upmJi-38" target="CuXoxN3Ce80IGL0upmJi-27" edge="1">
          <mxGeometry relative="1" as="geometry">
            <Array as="points">
              <mxPoint x="549" y="450" />
            </Array>
            <mxPoint x="560" y="430" as="sourcePoint" />
            <mxPoint x="510" y="474" as="targetPoint" />
          </mxGeometry>
        </mxCell>
        <mxCell id="CuXoxN3Ce80IGL0upmJi-159" style="edgeStyle=orthogonalEdgeStyle;html=1;labelBackgroundColor=none;startFill=0;startSize=8;endFill=1;endSize=8;fontFamily=Verdana;fontSize=12;exitX=0.194;exitY=-0.007;exitDx=0;exitDy=0;entryX=0.857;entryY=0.998;entryDx=0;entryDy=0;exitPerimeter=0;entryPerimeter=0;" parent="1" source="CuXoxN3Ce80IGL0upmJi-105" target="CuXoxN3Ce80IGL0upmJi-17" edge="1">
          <mxGeometry relative="1" as="geometry">
            <Array as="points">
              <mxPoint x="701" y="370" />
              <mxPoint x="513" y="370" />
            </Array>
            <mxPoint x="700" y="420.97" as="sourcePoint" />
            <mxPoint x="580" y="346.97" as="targetPoint" />
          </mxGeometry>
        </mxCell>
        <mxCell id="CuXoxN3Ce80IGL0upmJi-160" style="edgeStyle=orthogonalEdgeStyle;html=1;labelBackgroundColor=none;startFill=0;startSize=8;endFill=1;endSize=8;fontFamily=Verdana;fontSize=12;exitX=-0.002;exitY=0.195;exitDx=0;exitDy=0;entryX=0.61;entryY=1.028;entryDx=0;entryDy=0;exitPerimeter=0;entryPerimeter=0;" parent="1" source="CuXoxN3Ce80IGL0upmJi-27" target="CuXoxN3Ce80IGL0upmJi-17" edge="1">
          <mxGeometry relative="1" as="geometry">
            <Array as="points">
              <mxPoint x="454" y="465" />
              <mxPoint x="454" y="390" />
              <mxPoint x="483" y="390" />
              <mxPoint x="483" y="352" />
            </Array>
            <mxPoint x="454.01" y="470" as="sourcePoint" />
            <mxPoint x="266.01" y="381" as="targetPoint" />
          </mxGeometry>
        </mxCell>
        <mxCell id="CuXoxN3Ce80IGL0upmJi-161" style="edgeStyle=orthogonalEdgeStyle;html=1;labelBackgroundColor=none;startFill=0;startSize=8;endFill=1;endSize=8;fontFamily=Verdana;fontSize=12;entryX=0.803;entryY=0.021;entryDx=0;entryDy=0;entryPerimeter=0;exitX=0;exitY=0.536;exitDx=0;exitDy=0;exitPerimeter=0;" parent="1" source="CuXoxN3Ce80IGL0upmJi-28" target="CuXoxN3Ce80IGL0upmJi-37" edge="1">
          <mxGeometry relative="1" as="geometry">
            <Array as="points">
              <mxPoint x="420" y="490" />
              <mxPoint x="409" y="490" />
            </Array>
            <mxPoint x="460" y="480" as="sourcePoint" />
            <mxPoint x="560" y="460" as="targetPoint" />
          </mxGeometry>
        </mxCell>
        <mxCell id="CuXoxN3Ce80IGL0upmJi-162" style="edgeStyle=orthogonalEdgeStyle;html=1;labelBackgroundColor=none;startFill=0;startSize=8;endFill=1;endSize=8;fontFamily=Verdana;fontSize=12;exitX=0.25;exitY=0;exitDx=0;exitDy=0;entryX=0.717;entryY=0.002;entryDx=0;entryDy=0;entryPerimeter=0;" parent="1" source="CuXoxN3Ce80IGL0upmJi-37" target="CuXoxN3Ce80IGL0upmJi-90" edge="1">
          <mxGeometry relative="1" as="geometry">
            <Array as="points">
              <mxPoint x="320" y="440" />
              <mxPoint x="205" y="440" />
            </Array>
            <mxPoint x="322" y="451" as="sourcePoint" />
            <mxPoint x="260" y="470" as="targetPoint" />
          </mxGeometry>
        </mxCell>
        <mxCell id="CuXoxN3Ce80IGL0upmJi-155" style="edgeStyle=orthogonalEdgeStyle;html=1;labelBackgroundColor=none;startFill=0;startSize=8;endFill=1;endSize=8;fontFamily=Verdana;fontSize=12;exitX=0.376;exitY=1.006;exitDx=0;exitDy=0;exitPerimeter=0;entryX=0.561;entryY=-0.083;entryDx=0;entryDy=0;entryPerimeter=0;" parent="1" source="CuXoxN3Ce80IGL0upmJi-45" target="21ea969265ad0168-22" edge="1">
          <mxGeometry relative="1" as="geometry">
            <Array as="points">
              <mxPoint x="850" y="340" />
              <mxPoint x="810" y="340" />
            </Array>
            <mxPoint x="850" y="322" as="sourcePoint" />
            <mxPoint x="810" y="600" as="targetPoint" />
          </mxGeometry>
        </mxCell>
        <mxCell id="CuXoxN3Ce80IGL0upmJi-164" style="edgeStyle=orthogonalEdgeStyle;html=1;labelBackgroundColor=none;startFill=0;startSize=8;endFill=1;endSize=8;fontFamily=Verdana;fontSize=12;exitX=0.406;exitY=-0.013;exitDx=0;exitDy=0;exitPerimeter=0;entryX=0.25;entryY=1;entryDx=0;entryDy=0;" parent="1" source="CuXoxN3Ce80IGL0upmJi-90" target="CuXoxN3Ce80IGL0upmJi-17" edge="1">
          <mxGeometry relative="1" as="geometry">
            <Array as="points">
              <mxPoint x="155" y="410" />
              <mxPoint x="440" y="410" />
            </Array>
            <mxPoint x="170" y="450" as="sourcePoint" />
            <mxPoint x="440" y="400" as="targetPoint" />
          </mxGeometry>
        </mxCell>
      </root>
    </mxGraphModel>
  </diagram>
</mxfile>
